<?xml version="1.0" encoding="UTF-8" standalone="no"?>
<!DOCTYPE svg PUBLIC "-//W3C//DTD SVG 1.1//EN" "http://www.w3.org/Graphics/SVG/1.1/DTD/svg11.dtd">
<svg width="100%" height="100%" viewBox="0 0 1000 1000" version="1.1" xmlns="http://www.w3.org/2000/svg" xmlns:xlink="http://www.w3.org/1999/xlink" xml:space="preserve" xmlns:serif="http://www.serif.com/" style="fill-rule:evenodd;clip-rule:evenodd;stroke-linejoin:round;stroke-miterlimit:2;">
    <g transform="matrix(42.83756,0,0,42.83756,-9733.472509,-2226.555764)">
        <g transform="matrix(1,0,0,1,233.752182,56.835768)">
            <path d="M0,3.603C2.76,4.147 4.82,6.168 5.636,8.462C5.753,8.423 5.908,8.306 6.025,8.228C8.279,6.946 10.689,5.935 13.449,6.052C14.647,6.116 15.772,6.363 16.81,6.754L16.81,-2.29C16.81,-3.709 15.659,-4.859 14.24,-4.859L-3.965,-4.859C-5.384,-4.859 -6.534,-3.709 -6.534,-2.29L-6.534,2.065C-5.321,2.698 -4.617,2.963 -3.008,3.172C-2.19,3.277 -0.816,3.448 0,3.603" style="fill:rgb(40,81,120);fill-rule:nonzero;"/>
        </g>
        <g transform="matrix(1,0,0,1,238.728182,69.125668)">
            <path d="M0,-1.054C-0.117,-0.937 -0.078,-0.937 -0.194,-0.899C-0.272,-0.976 -0.311,-1.287 -0.35,-1.443C-0.428,-1.598 -0.466,-1.831 -0.544,-1.987C-1.555,-4.63 -4.004,-5.679 -6.996,-6.068C-8.706,-6.285 -10.159,-6.665 -11.51,-7.249L-11.51,3.626C-11.51,5.045 -10.359,6.195 -8.94,6.195L9.265,6.195C10.684,6.195 11.834,5.045 11.834,3.626L11.834,-2.625C10.489,-3.041 8.996,-3.27 7.502,-3.308C5.208,-3.308 1.594,-2.725 0,-1.054" style="fill:rgb(40,81,120);fill-rule:nonzero;"/>
        </g>
    </g>
</svg>
