<?xml version="1.0" encoding="utf-8"?>
<!-- Generator: Adobe Illustrator 27.9.0, SVG Export Plug-In . SVG Version: 6.00 Build 0)  -->
<svg version="1.1" id="Camada_2_00000083770362081310680850000017288764775879093437_"
	 xmlns="http://www.w3.org/2000/svg" xmlns:xlink="http://www.w3.org/1999/xlink" x="0px" y="0px" viewBox="0 0 185.5 185.5"
	 style="enable-background:new 0 0 185.5 185.5;" xml:space="preserve">
<style type="text/css">
	.st0{fill:#285178;}
</style>
<g id="Camada_1-2">
	<g>
		<g>
			<path class="st0" d="M150.4,70.1c-0.8,0-2.9,0.3-3.5,0.7l0.3,1.2c1.9-0.2,5-1.6,5.1,0.5c0.1,2.8,0.2,2.3-0.9,2.4
				c-2.9,0.2-5.2,0.1-5.1,3.1c0.1,4.4,5.4,1.7,6.1,1.6l0.1,0.7h0.9v-8.9C152.7,70.4,152.5,70,150.4,70.1L150.4,70.1z M152.2,78.5
				c-1.4,0.3-4.6,1.7-4.9-0.4c-0.1-0.5,0.1-1,0.3-1.4c0.3-0.5,0.6-0.4,1.3-0.4c1-0.1,2.2-0.2,3.3-0.3V78.5z"/>
			<path class="st0" d="M74.5,75h2.2l2,3.9c0.9,1.8,1.6,2.2,4.1,2v-2.9c-1.2,0.1-1,0-1.9-1.6c-0.4-0.7-0.9-1.6-1.2-2.3
				c3.1-1.1,3.3-5.3,1.7-7.4c-1.3-1.7-4.8-1.4-7-1.4c-0.8,0-2.2-0.1-2.8,0l0,15.5h3L74.5,75L74.5,75z M74.5,68
				c2.4,0,4.9-0.3,4.7,2.3c-0.2,2.5-2.3,2.2-4.7,2.2V68z"/>
			<path class="st0" d="M73.4,96.5h5.1l1.2,4.1h3.2c0-0.5-1-3.3-1.2-4.1c-0.6-1.8-3.4-10.8-3.6-11.9l-4.1,0l-5,15.9h3.1
				C72.2,100.6,73.5,96.5,73.4,96.5z M75.6,89c0.2-0.5,0.2-1.3,0.4-1.7c0.2,0.2,0.2,0.6,0.2,0.8l0.7,2.5c0.3,0.8,0.8,2.4,0.9,3.2
				h-3.7C74.3,93.1,75.3,90.1,75.6,89L75.6,89z"/>
			<polygon class="st0" points="85.5,84.6 85.5,100.6 95.1,100.6 94.8,97.8 88.6,97.7 88.6,84.6 			"/>
			<path class="st0" d="M106.7,81c0.9-0.1,3-0.5,3.7-0.8l0-8.3h-5.5l0,2.7h2.6V78c-2.1,0.3-3.9,0.7-5.1-0.7c-0.9-1.1-1-3.8-0.9-5.4
				c0.2-1.9,0.6-3.4,2.4-3.8c0.8-0.2,2.1-0.1,2.9,0c0.8,0.2,2,0.6,2.6,0.7l0.7-2.9c-0.6-0.2-1.2-0.3-1.8-0.4c-0.6-0.1-1.5-0.2-2-0.3
				h-2c-2.9,0.4-4.4,1.1-5.4,3.3c-0.8,1.9-0.9,5.5-0.5,7.6C99.3,80.5,102.6,81.5,106.7,81L106.7,81z"/>
			<polygon class="st0" points="140.1,78.2 133.5,78.2 133.5,74.4 139.7,74.4 139.7,71.7 133.5,71.7 133.5,68.2 140,68.2 140,65.4 
				130.4,65.4 130.4,80.9 140.3,80.9 			"/>
			<path class="st0" d="M100.8,84.6c-0.2,0.4-5,15.5-5,15.9h3.1l1.2-4.1h5c0.3,0.1,1.2,3.6,1.3,4.1l3.2,0l-4.9-15.9L100.8,84.6
				L100.8,84.6z M100.8,93.8c0.1-1.2,1.4-4.1,1.7-6.1l0.2-0.5c0.2,0.4,0.2,1.2,0.4,1.7c0.2,0.6,0.3,1,0.5,1.6
				c0.3,0.9,0.8,2.3,0.9,3.2L100.8,93.8L100.8,93.8z"/>
			<path class="st0" d="M136.2,96c-0.3-0.6-1.1-1.7-1.3-2.4c1.3-0.3,2.3-1.7,2.6-3.1c0.3-1.6,0-3.6-0.9-4.5c-0.5-0.5-1-0.9-1.8-1.1
				c-1.5-0.5-7.5-0.5-8.3-0.3v15.9l3.1,0v-6h2.2c0.3,0.4,1.8,3.4,2.2,4.1c0.9,1.7,1.5,2.4,4.2,2l0-2.9
				C137.1,97.6,137.1,97.6,136.2,96L136.2,96z M133,91.8c-0.6,0.2-2.7,0.3-3.4,0.2v-4.6c0.6-0.1,3.1-0.1,3.6,0.1
				C135,88.1,134.8,91.1,133,91.8L133,91.8z"/>
			<path class="st0" d="M126.3,65.4l-2.9,0c-0.1,0.4,0,6.8,0,7.8c0,2.7,0.4,5-3,5c-3.4,0-3-2.3-3-5c0-1.2,0.1-7.2,0-7.8l-3,0
				c-0.1,0.4-0.1,9.6,0,10.6c0.2,3.6,2.1,5.1,6,5.1c7.1,0,6-5.2,6-10.3V65.4L126.3,65.4z"/>
			<polygon class="st0" points="88.9,78.2 88.9,74.4 95.1,74.4 95.1,71.7 89,71.7 88.9,68.2 95.4,68.2 95.5,65.4 85.9,65.4 
				85.8,80.9 95.7,80.9 95.5,78.2 			"/>
			<path class="st0" d="M118.7,90.9l-1.5,4.7c-0.1,0.4-0.2,1.5-0.3,1.7c-0.1-0.2-0.2-1.1-0.3-1.6l-3.5-11l-3.2,0l5.1,15.9h3.8
				l5.1-15.9h-3.1C120.4,85,119,90,118.7,90.9L118.7,90.9z"/>
			<path class="st0" d="M94.7,112.4l-2.8-2.1c-4.1-2.9-9.1-4.7-14.7-5c-7.1-0.3-13.3,2.3-19.1,5.6c-0.3,0.2-0.7,0.5-1,0.6
				c-2.1-5.9-7.4-11.1-14.5-12.5c-2.1-0.4-4.2-0.3-6.3-0.6c-6.9-0.8-11.3-3.7-16.8-7c-0.3-0.2-0.8-0.7-1.1-0.3
				c-0.3,0.4,0.3,0.7,0.6,0.9c1.4,0.9,2.7,1.7,4.2,2.6c2.6,1.6,6.2,3.2,9.6,4c5.2,1.3,7.7,0.4,12,1.8c3.5,1.1,5.9,2.9,8.2,5.3
				c-1.8-1.7-4.3-3.4-7.7-4.5c-4.6-1.5-7-0.8-10.9-1.4c-3.6-0.6-6.4-1.6-9.3-3c-1.7-0.8-4.3-2.2-5.9-3.2c-0.3-0.2-0.6-0.4-1-0.6
				c-0.4-0.2-0.6-0.5-1.1-0.3c-0.2,0.6,0.1,0.7,0.6,1l2.9,1.7c1.3,0.8,2.6,1.4,4,2.1c9.9,4.8,13.6,2.3,20.5,4.6
				c3.5,1.2,5.2,2.4,7.6,4.7c-1.8-1.8-5.5-3.4-8.2-4.1c-4.8-1.2-7-0.7-11-1.4c-3.5-0.6-6.5-1.5-9.5-2.8c-2-0.8-4.3-2-6.1-3.1
				C17.5,95.2,16,94,16,94.9c0,0.3,1.5,1.4,1.8,1.6c5.9,4.4,11.7,6.7,19.6,7.7c7.7,1,14,3.7,16.6,10.5c0.2,0.4,0.3,1,0.5,1.4
				c0.1,0.4,0.2,1.2,0.4,1.4c0.3-0.1,0.2-0.1,0.5-0.4c4.1-4.3,13.4-5.8,19.3-5.8c3.9,0.1,7.8,0.7,11.3,1.8c1.7,0.5,3.2,1.1,4.7,1.8
				c0.8,0.3,1.4,0.7,2.2,1.1c0.4,0.2,0.7,0.4,1.1,0.6c0.3,0.2,0.7,0.5,1.1,0.3c0.5-0.4-0.8-1.2-1.1-1.4c-6.4-4.8-13.7-7.4-22.3-6.9
				c-1.7,0.1-3.2,0.3-4.8,0.6c-0.7,0.1-1.5,0.3-2.2,0.5c-0.7,0.2-1.4,0.4-2,0.5c0.2,0,1.5-0.6,1.9-0.7c0.7-0.2,1.3-0.4,2-0.6
				c9.7-2.8,19.4-0.7,27.1,5.2c0.5,0.4,1.2,1.1,1.6,0.9c0.7-0.5-1.5-1.9-2-2.2c-4.9-3.5-10-5.7-16.5-6c-3.2-0.2-5.4,0.3-8.2,0.7
				c0.5-0.1,1.2-0.3,1.8-0.4c7.3-1.6,13.7-0.5,20,3.1c1,0.6,3.7,2.3,4.5,3.1c0.7,0.6,0.9,0.1,0.6-0.4
				C95,112.6,94.8,112.5,94.7,112.4L94.7,112.4z"/>
			<path class="st0" d="M60.4,75.6c1.8-0.2,4,0.4,6.1-1.2c2.2-1.7,3.1-7.9-1.9-8.8c-1.7-0.3-5.3-0.2-7.2-0.2l0,15.5h3L60.4,75.6
				L60.4,75.6z M60.2,68.2v-0.3c2.5,0,5.2-0.4,5,2.7c-0.2,2.8-2.5,2.7-5,2.5C60.2,73.1,60.2,68.2,60.2,68.2z"/>
			<path class="st0" d="M144.4,84.6c-0.4,1.7-4.9,15.1-4.9,15.9h3.1l1.2-4.1h5.1l1.2,4.1h3.2v-0.1l-4.9-15.8H144.4z M144.5,93.8
				c0.1-0.7,1.1-3.8,1.4-4.8c0.1-0.4,0.2-1.6,0.4-1.8c0.1-0.1,0.2-0.1,0,0.1c0,0.1,0,0.1,0,0.1c0,0.1,0,0.1,0.1,0.2
				c0.4,2.2,1.4,4.5,1.7,6.1L144.5,93.8L144.5,93.8z"/>
			<path class="st0" d="M60.5,100.6v-5.5c2.6-0.2,4.5,0.2,6.3-1.2c1.4-1.1,2-2.9,1.7-5.4c-0.3-2-1.6-3.3-3.7-3.7
				c-1.8-0.3-5.5-0.2-7.4-0.2v15.9L60.5,100.6L60.5,100.6z M65.2,89.8c-0.1,2.7-2.3,2.7-4.8,2.5v-5C63,87.3,65.3,87,65.2,89.8z"/>
		</g>
	</g>
</g>
</svg>
